<svg width="1025" height="301" viewBox="0 0 1025 301" fill="none" xmlns="http://www.w3.org/2000/svg">
<path d="M92.8276 161.307L0.734375 297.107H82.3664L119.409 242.377C127.984 229.549 132.443 220.485 117.523 197.566L92.8276 161.307Z" fill="url(#paint0_linear_4071_85)"/>
<path d="M158.339 137.362L82.3664 25.5063H0.734375L117.523 197.566C132.443 220.313 127.813 229.549 119.409 242.376L122.325 237.929L160.225 182.173C168.8 169.345 173.431 160.28 158.339 137.362Z" fill="#FB2576"/>
<path d="M266.724 25.5064H185.264L133.815 101.274L158.511 137.533C173.431 160.281 168.8 169.516 160.397 182.344L266.724 25.5064Z" fill="#6316DB"/>
<path d="M472.688 290.779C458.625 284.622 450.222 276.241 441.99 265.466C433.758 254.691 429.299 242.719 428.27 229.378H488.122C488.808 236.561 492.238 242.376 498.069 246.823C504.071 251.27 511.274 253.494 520.02 253.494C527.909 253.494 534.083 251.954 538.37 248.876C542.658 245.797 544.887 241.863 544.887 236.903C544.887 230.917 541.8 226.641 535.627 223.734C529.453 220.826 519.506 217.748 505.615 214.327C490.866 210.906 478.347 207.315 468.572 203.381C458.625 199.618 450.222 193.461 443.019 185.251C435.816 177.042 432.215 165.925 432.215 151.729C432.215 139.928 435.473 129.153 441.99 119.404C448.507 109.655 458.11 101.958 470.973 96.3142C483.663 90.6701 498.755 87.7625 516.419 87.7625C542.315 87.7625 562.894 94.2618 577.814 106.918C592.735 119.746 601.309 136.678 603.539 157.886H545.059C544.03 150.703 540.943 145.059 535.627 140.954C530.31 136.849 523.279 134.626 514.704 134.626C507.33 134.626 501.67 135.994 497.726 138.901C493.782 141.809 491.724 145.572 491.724 150.532C491.724 156.518 494.811 160.965 501.156 163.872C507.501 166.78 517.276 169.858 530.653 172.766C545.916 176.7 558.435 180.634 568.039 184.396C577.643 188.159 586.218 194.316 593.421 202.868C600.795 211.419 604.396 222.708 604.739 237.074C604.739 249.218 601.309 259.993 594.621 269.4C587.761 278.978 577.986 286.332 565.295 291.805C552.605 297.278 537.856 300.015 521.049 300.015C502.871 300.015 486.75 296.936 472.688 290.779Z" fill="#6316DB"/>
<path d="M661.161 290.779C647.099 284.622 638.695 276.241 630.463 265.466C622.232 254.691 617.773 242.719 616.744 229.378H676.596C677.282 236.561 680.712 242.376 686.543 246.823C692.545 251.27 699.748 253.494 708.494 253.494C716.383 253.494 722.557 251.954 726.844 248.876C731.132 245.797 733.361 241.863 733.361 236.903C733.361 230.917 730.274 226.641 724.1 223.734C717.926 220.826 707.98 217.748 694.088 214.327C679.34 210.906 666.821 207.315 657.045 203.381C647.099 199.618 638.695 193.461 631.492 185.251C624.29 177.042 620.688 165.925 620.688 151.729C620.688 139.928 623.947 129.153 630.463 119.404C636.98 109.655 646.584 101.958 659.446 96.3142C672.137 90.6701 687.229 87.7625 704.893 87.7625C730.789 87.7625 751.368 94.2618 766.288 106.918C781.208 119.746 789.783 136.678 792.013 157.886H733.361C732.332 150.703 729.245 145.059 723.929 140.954C718.612 136.849 711.581 134.626 703.006 134.626C695.632 134.626 689.973 135.994 686.028 138.901C682.084 141.809 680.026 145.572 680.026 150.532C680.026 156.518 683.113 160.965 689.458 163.872C695.803 166.78 705.579 169.858 718.955 172.766C734.218 176.7 746.738 180.634 756.341 184.396C765.945 188.159 774.52 194.316 781.723 202.868C789.097 211.419 792.699 222.708 793.042 237.074C793.042 249.218 789.612 259.993 782.923 269.4C776.063 278.978 766.288 286.332 753.598 291.805C740.907 297.278 726.158 300.015 709.352 300.015C691.173 300.015 675.224 296.936 661.161 290.779Z" fill="#6316DB"/>
<path d="M872.959 90.6701H813.107V296.936H872.959V90.6701Z" fill="#6316DB"/>
<path d="M856.436 67.4801C874.374 60.0695 882.893 39.5588 875.462 21.6684C868.032 3.77787 847.466 -4.71773 829.527 2.69291C811.588 10.1036 803.069 30.6142 810.5 48.5047C817.931 66.3951 838.497 74.8907 856.436 67.4801Z" fill="#6316DB"/>
<path d="M1008.27 90.6701C981.517 90.6701 950.648 100.932 929.04 122.995C905.202 147.453 896.456 175.503 896.456 201.158V296.936H956.308V201.158C956.308 184.225 963.853 172.424 971.228 165.241C978.773 157.886 989.406 150.361 1007.24 150.361H1024.73V90.6701H1008.27Z" fill="#6316DB"/>
<path d="M308.051 89.3021C249.399 89.3021 203.096 135.481 203.096 193.974C203.096 251.784 246.998 297.107 306.679 297.107H311.652L351.611 238.272H318.684C302.049 238.272 285.757 233.825 277.01 225.102C268.95 217.064 263.634 206.118 263.634 193.974C263.634 168.661 282.841 149.677 308.051 149.677C333.432 149.677 352.64 168.833 352.64 193.974V297.107H413.006V193.974C412.835 135.31 366.531 89.3021 308.051 89.3021Z" fill="#6316DB"/>
<defs>
<linearGradient id="paint0_linear_4071_85" x1="13.1207" y1="291.503" x2="117.761" y2="203.461" gradientUnits="userSpaceOnUse">
<stop offset="0.00296474" stop-color="#FB2576"/>
<stop offset="0.2422" stop-color="#F82475"/>
<stop offset="0.412" stop-color="#EF2273"/>
<stop offset="0.5603" stop-color="#DF1E6F"/>
<stop offset="0.6963" stop-color="#C91969"/>
<stop offset="0.8238" stop-color="#AD1361"/>
<stop offset="0.9434" stop-color="#8A0A58"/>
<stop offset="1" stop-color="#770653"/>
</linearGradient>
</defs>
</svg>
